<svg width="24" height="24" viewBox="0 0 24 24" xmlns="http://www.w3.org/2000/svg">
    <g fill="#231F20" fill-rule="evenodd">
        <path d="M22.069 11.86c-.025-.514-.057-1.183-.196-1.842-.539-2.571-1.868-4.64-3.987-6.183-2.373-1.727-5.027-2.288-7.892-1.72-2.86.566-5.05 2.157-6.595 4.612C2.121 8.757 1.695 10.994 2 13.363a9.54 9.54 0 0 0 1.346 3.81c.23.375.27.742.13 1.159-.329.975-.635 1.958-.949 2.938-.022.07-.09.155-.021.215.051.044.133-.01.198-.032.98-.315 1.962-.621 2.937-.95.416-.14.781-.098 1.159.126 2.172 1.289 4.51 1.715 6.994 1.274 2.443-.435 4.44-1.656 6.007-3.563 1.505-1.83 2.24-3.956 2.268-6.48M0 23.324v-.562c.5-1.547 1-3.095 1.504-4.641.05-.153-.008-.273-.076-.397a12.027 12.027 0 0 1-1.1-2.82c-.16-.635-.246-1.282-.328-1.93v-1.967c.056-.393.089-.79.171-1.177C1.18 5.087 3.999 1.966 8.601.458 9.378.202 10.19.089 11.002 0h1.966c.255.03.511.053.764.093 2.932.465 5.405 1.785 7.34 4.042 2.373 2.769 3.294 5.999 2.796 9.596-.406 2.932-1.766 5.393-4.01 7.33-2.643 2.281-5.73 3.21-9.194 2.871-1.536-.15-2.99-.61-4.347-1.353a.738.738 0 0 0-.641-.051c-1.415.465-2.833.917-4.25 1.371-.702.225-1.075.073-1.427-.576"/>
        <path d="M6.997 13A.982.982 0 0 1 6 12.002.983.983 0 0 1 7.013 11c.56.003.989.44.987 1.008A.983.983 0 0 1 6.997 13M11.997 13a.982.982 0 0 1-.997-.998A.982.982 0 0 1 12.013 11c.56.003.989.44.987 1.008a.983.983 0 0 1-1.003.992M16.992 13A.983.983 0 0 1 16 11.997c0-.572.44-1.001 1.018-.997.559.004.985.444.982 1.013a.982.982 0 0 1-1.008.987"/>
    </g>
</svg>
